<?xml version="1.0" encoding="UTF-8" standalone="no"?>
<!DOCTYPE svg PUBLIC "-//W3C//DTD SVG 1.1//EN" "http://www.w3.org/Graphics/SVG/1.1/DTD/svg11.dtd">
<!-- Generated by Microsoft Visio, SVG Export multiple-connected-devices.svg Page-1 -->
<svg xmlns="http://www.w3.org/2000/svg" xmlns:xlink="http://www.w3.org/1999/xlink" xmlns:ev="http://www.w3.org/2001/xml-events"
		xmlns:v="http://schemas.microsoft.com/visio/2003/SVGExtensions/" width="7.08995in" height="2.62341in"
		viewBox="0 0 510.476 188.886" xml:space="preserve" color-interpolation-filters="sRGB" class="st29">
	<v:documentProperties v:langID="1026" v:metric="true" v:viewMarkup="false"/>

	<style type="text/css">
	<![CDATA[
		.st1 {fill:#ffffff;stroke:none;stroke-linecap:round;stroke-linejoin:round;stroke-width:0.24}
		.st2 {fill:#0e6f9c;stroke:#ffffff;stroke-linecap:round;stroke-linejoin:round;stroke-width:0.749999}
		.st3 {fill:#2f698c;stroke:#ffffff;stroke-linecap:round;stroke-linejoin:round;stroke-width:0.749999}
		.st4 {fill:none}
		.st5 {stroke:#ffffff;stroke-linecap:round;stroke-linejoin:round;stroke-width:0.749999}
		.st6 {fill:none;stroke:#ffffff;stroke-linecap:round;stroke-linejoin:round;stroke-width:0.749999}
		.st7 {fill:#126d99;stroke:#ffffff;stroke-linecap:round;stroke-linejoin:round;stroke-width:0.75}
		.st8 {fill:#126d99}
		.st9 {stroke:#ffffff;stroke-linecap:round;stroke-linejoin:round;stroke-width:0.75}
		.st10 {stroke:#0e6f9c;stroke-linecap:round;stroke-linejoin:round;stroke-width:2.36041}
		.st11 {stroke:#edede7;stroke-linecap:round;stroke-linejoin:round;stroke-width:1.1802}
		.st12 {fill:#c9c9b6;stroke:#ffffff;stroke-linecap:round;stroke-linejoin:round;stroke-width:0.75}
		.st13 {fill:#0e6f9c;stroke:#ffffff;stroke-linecap:round;stroke-linejoin:round;stroke-width:0.590102}
		.st14 {fill:#7a7a5a;stroke:#ffffff;stroke-linecap:round;stroke-linejoin:round;stroke-width:0.75}
		.st15 {fill:#b7b79d;stroke:#ffffff;stroke-linecap:round;stroke-linejoin:round;stroke-width:0.75}
		.st16 {fill:#a5a585;stroke:#ffffff;stroke-linecap:round;stroke-linejoin:round;stroke-width:0.75}
		.st17 {fill:#626248;stroke:#ffffff;stroke-linecap:round;stroke-linejoin:round;stroke-width:0.75}
		.st18 {fill:#0e6f9c;stroke:#ffffff;stroke-linecap:round;stroke-linejoin:round;stroke-width:0.75}
		.st19 {fill:#0f78aa;stroke:#ffffff;stroke-linecap:round;stroke-linejoin:round;stroke-width:0.590102}
		.st20 {fill:none;stroke:none;stroke-linecap:round;stroke-linejoin:round;stroke-width:0.749999}
		.st21 {fill:#ffffff;font-family:Arial;font-size:0.75em;font-weight:bold}
		.st22 {font-size:1em}
		.st23 {stroke:#000000;stroke-linecap:round;stroke-linejoin:round;stroke-width:1.25}
		.st24 {fill:none;stroke:none;stroke-linecap:round;stroke-linejoin:round;stroke-width:0.75}
		.st25 {fill:#000000;font-family:Arial;font-size:1.00001em}
		.st26 {fill:#fee599;stroke:#000000;stroke-linecap:round;stroke-linejoin:round;stroke-width:1}
		.st27 {fill:#000000;font-family:Arial;font-size:0.833336em}
		.st28 {font-size:1em;font-weight:bold}
		.st29 {fill:none;fill-rule:evenodd;font-size:12px;overflow:visible;stroke-linecap:square;stroke-miterlimit:3}
	]]>
	</style>

	<g v:mID="0" v:index="1" v:groupContext="foregroundPage">
		<title>Page-1</title>
		<v:pageProperties v:drawingScale="0.0393701" v:pageScale="0.0393701" v:drawingUnits="24" v:shadowOffsetX="9"
				v:shadowOffsetY="-9"/>
		<g id="group488-1" transform="translate(0.12,-0.12)" v:mID="488" v:groupContext="group">
			<title>Sheet.488</title>
			<g id="shape445-2" v:mID="445" v:groupContext="shape">
				<title>Rectangle</title>
				<v:userDefs>
					<v:ud v:nameU="visVersion" v:val="VT0(15):26"/>
				</v:userDefs>
				<rect x="0" y="0.239997" width="510.236" height="188.646" class="st1"/>
			</g>
			<g id="group222-4" transform="translate(318.652,-107.374)" v:mID="222" v:groupContext="group">
				<title>Sheet.222</title>
				<g id="shape223-5" v:mID="223" v:groupContext="shape">
					<title>Sheet.223</title>
					<path d="M0 147.75 L0 188.89 L28.72 188.89 L28.72 147.75 L0 147.75 Z" class="st2"/>
				</g>
				<g id="shape224-7" v:mID="224" v:groupContext="shape" transform="translate(-1.79856E-13,-41.139)">
					<title>Sheet.224</title>
					<path d="M0 188.89 L8.38 180.5 L37.09 180.5 L28.72 188.89 L0 188.89 Z" class="st2"/>
				</g>
				<g id="shape225-9" v:mID="225" v:groupContext="shape" transform="translate(28.7157,0)">
					<title>Sheet.225</title>
					<path d="M0 188.89 L8.38 180.5 L8.38 139.36 L0 147.75 L0 188.89 Z" class="st3"/>
				</g>
				<g id="shape226-11" v:mID="226" v:groupContext="shape" transform="translate(0.523464,-29.824)">
					<title>Sheet.226</title>
					<path d="M0 188.89 L27.74 188.89 L0 188.89 Z" class="st4"/>
					<path d="M0 188.89 L27.74 188.89" class="st5"/>
				</g>
				<g id="shape227-14" v:mID="227" v:groupContext="shape" transform="translate(0.299122,-30.0488)">
					<title>Sheet.227</title>
					<path d="M0 188.89 L28.12 188.89 L0 188.89 Z" class="st4"/>
					<path d="M0 188.89 L28.12 188.89" class="st5"/>
				</g>
				<g id="shape228-17" v:mID="228" v:groupContext="shape" transform="translate(0.523464,-16.3357)">
					<title>Sheet.228</title>
					<path d="M0 188.89 L27.67 188.89 L0 188.89 Z" class="st4"/>
					<path d="M0 188.89 L27.67 188.89" class="st5"/>
				</g>
				<g id="shape229-20" v:mID="229" v:groupContext="shape" transform="translate(0.299122,-16.5605)">
					<title>Sheet.229</title>
					<path d="M0 188.89 L28.12 188.89 L0 188.89 Z" class="st4"/>
					<path d="M0 188.89 L28.12 188.89" class="st5"/>
				</g>
				<g id="shape230-23" v:mID="230" v:groupContext="shape" transform="translate(10.1702,-21.9558)">
					<title>Sheet.230</title>
					<path d="M0 188.89 L8.15 188.89 L0 188.89 Z" class="st4"/>
					<path d="M0 188.89 L8.15 188.89" class="st5"/>
				</g>
				<g id="shape231-26" v:mID="231" v:groupContext="shape" transform="translate(10.1702,-24.4287)">
					<title>Sheet.231</title>
					<path d="M0 188.89 L8.15 188.89 L0 188.89 Z" class="st4"/>
					<path d="M0 188.89 L8.15 188.89" class="st5"/>
				</g>
				<g id="shape232-29" v:mID="232" v:groupContext="shape" transform="translate(6.9546,-19.1083)">
					<title>Sheet.232</title>
					<path d="M14.36 188.89 L14.36 181.02 L0 181.02 L0 188.89 L14.36 188.89 Z" class="st6"/>
				</g>
			</g>
			<g id="group346-31" transform="translate(307.406,-54.5964)" v:mID="346" v:groupContext="group">
				<title>printer.346</title>
				<g id="group347-32" v:mID="347" v:groupContext="group">
					<title>A.2</title>
					<g id="group348-33" v:mID="348" v:groupContext="group">
						<title>Sheet.348</title>
						<g id="shape349-34" v:mID="349" v:groupContext="shape">
							<title>Sheet.349</title>
							<path d="M0 188.89 L0 163.43 L55.4 163.43 L55.4 188.89 L0 188.89 Z" class="st7"/>
						</g>
						<g id="shape350-36" v:mID="350" v:groupContext="shape">
							<title>Sheet.350</title>
							<path d="M55.4 188.89 L55.4 163.43 L0 163.43 L6.99 156.44 L62.39 156.44 L62.39 181.4 L55.4 188.89 Z"
									class="st7"/>
						</g>
					</g>
					<g id="shape351-38" v:mID="351" v:groupContext="shape" transform="translate(55.3996,-25.4535)">
						<title>Sheet.351</title>
						<path d="M0 188.89 L6.99 181.9 L0 188.89 Z" class="st7"/>
					</g>
					<g id="shape352-40" v:mID="352" v:groupContext="shape" transform="translate(55.3996,-25.4535)">
						<title>Sheet.352</title>
						<path d="M0 188.89 L6.99 181.9 L0 188.89 Z" class="st8"/>
						<path d="M0 188.89 L6.99 181.9" class="st9"/>
					</g>
					<g id="shape353-43" v:mID="353" v:groupContext="shape" transform="translate(-4.23661E-13,-6.98745)">
						<title>Sheet.353</title>
						<path d="M55.4 188.89 L0 188.89 L55.4 188.89 Z" class="st7"/>
					</g>
					<g id="shape354-45" v:mID="354" v:groupContext="shape" transform="translate(-4.23661E-13,-6.98745)">
						<title>Sheet.354</title>
						<path d="M55.4 188.89 L0 188.89 L55.4 188.89 Z" class="st8"/>
						<path d="M55.4 188.89 L0 188.89" class="st9"/>
					</g>
					<g id="shape355-48" v:mID="355" v:groupContext="shape" transform="translate(55.3996,-6.98745)">
						<title>Sheet.355</title>
						<path d="M6.99 181.9 L0 188.89 L6.99 181.9 Z" class="st7"/>
					</g>
					<g id="group356-50" transform="translate(55.3996,-6.98745)" v:mID="356" v:groupContext="group">
						<title>Sheet.356</title>
						<g id="shape357-51" v:mID="357" v:groupContext="shape">
							<title>Sheet.357</title>
							<path d="M6.99 181.9 L0 188.89 L6.99 181.9 Z" class="st8"/>
							<path d="M6.99 181.9 L0 188.89" class="st9"/>
						</g>
						<g id="shape358-54" v:mID="358" v:groupContext="shape" transform="translate(0,-4.98995)">
							<title>Sheet.358</title>
							<path d="M29.95 173.41 L22.96 180.9 L0 188.89 L6.99 181.4 L29.95 173.41 L29.95 173.41 Z" class="st7"/>
						</g>
					</g>
				</g>
			</g>
			<g id="group359-56" transform="translate(307.406,-3.02249)" v:mID="359" v:groupContext="group">
				<title>phone</title>
				<g id="group360-57" v:mID="360" v:groupContext="group">
					<title>A.2</title>
					<g id="shape361-58" v:mID="361" v:groupContext="shape" transform="translate(-3.51719E-13,-6.97907)">
						<title>C</title>
						<path d="M29.75 163.54 L15.79 163.54 L0 186.31 L13.96 186.31 C30.86 188.89 34.9 187.42 51.06 186.31 L62.44
									 167.58 L58.4 167.58 L61.34 163.54 L33.43 163.54 L30.12 167.58 L26.81 167.58 L29.75 163.54 Z"
								class="st7"/>
					</g>
					<g id="group362-60" transform="translate(0,-2.20873)" v:mID="362" v:groupContext="group">
						<title>Sheet.362</title>
						<g id="shape363-61" v:mID="363" v:groupContext="shape" transform="translate(-3.19744E-13,-4.77034)">
							<title>C</title>
							<path d="M29.75 163.54 L15.79 163.54 L0 186.31 L13.96 186.31 C30.86 188.89 34.9 187.42 51.06 186.31 L62.44
										 167.58 L58.4 167.58 L61.34 163.54 L33.43 163.54 L30.12 167.58 L26.81 167.58 L29.75 163.54
										 Z" class="st7"/>
						</g>
						<g id="shape364-63" v:mID="364" v:groupContext="shape" transform="translate(19.8394,0)">
							<title>Sheet.364</title>
							<path d="M9.92 180.07 L0 180.07 L5.51 173.09 L15.06 173.09 L9.92 180.07 L9.92 180.07 ZM42.61 162.81 L42.61
										 176.4 L31.22 188.89 L31.22 181.54 L42.61 162.81 Z" class="st7"/>
						</g>
					</g>
					<g id="shape365-65" v:mID="365" v:groupContext="shape" transform="translate(51.0613,-9.55562)">
						<title>Sheet.365</title>
						<path d="M0 188.89 L11.39 170.15 L0 188.89 Z" class="st7"/>
					</g>
					<g id="shape366-67" v:mID="366" v:groupContext="shape" transform="translate(51.0613,-9.55562)">
						<title>Sheet.366</title>
						<path d="M0 188.89 L11.39 170.15 L0 188.89 Z" class="st8"/>
						<path d="M0 188.89 L11.39 170.15" class="st9"/>
					</g>
					<g id="shape367-70" v:mID="367" v:groupContext="shape" transform="translate(11.755,-11.0194)">
						<title>D</title>
						<path d="M10.65 172.72 C8.82 174.93 6.61 177.5 5.14 180.07 L5.14 181.54 L0.37 188.89 L0 184.11 C0.73 180.44
									 11.75 166.48 14.32 165.01 L15.06 169.79 L10.65 174.19 L10.65 172.72 Z" class="st7"/>
					</g>
					<g id="group368-72" transform="translate(2.57654,-11.0194)" v:mID="368" v:groupContext="group">
						<title>Sheet.368</title>
						<g id="shape369-73" v:mID="369" v:groupContext="shape" transform="translate(9.17847,0)">
							<title>D</title>
							<path d="M10.65 172.72 C8.82 174.93 6.61 177.5 5.14 180.07 L5.14 181.54 L0.37 188.89 L0 184.11 C0.73
										 180.44 11.75 166.48 14.32 165.01 L15.06 169.79 L10.65 174.19 L10.65 172.72 Z" class="st7"/>
						</g>
						<g id="shape370-75" v:mID="370" v:groupContext="shape" transform="translate(1.20903E-13,-0.00560118)">
							<title>Sheet.370</title>
							<path d="M0.37 184.11 L0 188.89 L9.55 188.89 L9.18 184.11 L0.37 184.11 Z" class="st7"/>
						</g>
					</g>
					<g id="shape371-77" v:mID="371" v:groupContext="shape" transform="translate(2.93875,-15.7944)">
						<title>E</title>
						<path d="M23.14 169.79 C20.57 171.26 9.55 185.21 8.82 188.89 L0 188.89 C0.73 185.21 11.75 171.26 14.33 169.79
									 L23.14 169.79 Z" class="st7"/>
					</g>
					<g id="group372-79" transform="translate(2.93875,-15.7944)" v:mID="372" v:groupContext="group">
						<title>Sheet.372</title>
						<g id="shape373-80" v:mID="373" v:groupContext="shape">
							<title>E</title>
							<path d="M23.14 169.79 C20.57 171.26 9.55 185.21 8.82 188.89 L0 188.89 C0.73 185.21 11.75 171.26 14.33
										 169.79 L23.14 169.79 Z" class="st7"/>
						</g>
						<g id="shape374-82" v:mID="374" v:groupContext="shape" transform="translate(26.0838,-6.98467)">
							<title>Sheet.374</title>
							<path d="M0 188.89 L5.88 181.17 L28.28 181.17 L23.14 188.89 L0 188.89 Z" class="st7"/>
						</g>
						<g id="shape375-84" v:mID="375" v:groupContext="shape" transform="translate(28.6547,-8.45312)">
							<title>Sheet.375</title>
							<path d="M0 188.89 L3.67 183.74 L18.73 183.74 L15.43 188.89 L0 188.89 Z" class="st7"/>
						</g>
					</g>
					<g id="shape376-86" v:mID="376" v:groupContext="shape" transform="translate(26.4516,-11.025)">
						<title>Sheet.376</title>
						<path d="M5.14 181.91 L0 188.89 L5.14 181.91 Z" class="st7"/>
					</g>
					<g id="shape377-88" v:mID="377" v:groupContext="shape" transform="translate(26.4516,-11.025)">
						<title>Sheet.377</title>
						<path d="M5.14 181.91 L0 188.89 L5.14 181.91 Z" class="st8"/>
						<path d="M5.14 181.91 L0 188.89" class="st9"/>
					</g>
					<g id="shape378-91" v:mID="378" v:groupContext="shape" transform="translate(23.145,-11.025)">
						<title>Sheet.378</title>
						<path d="M5.14 181.91 L0 188.89 L5.14 181.91 Z" class="st7"/>
					</g>
					<g id="shape379-93" v:mID="379" v:groupContext="shape" transform="translate(23.145,-11.025)">
						<title>Sheet.379</title>
						<path d="M5.14 181.91 L0 188.89 L5.14 181.91 Z" class="st8"/>
						<path d="M5.14 181.91 L0 188.89" class="st9"/>
					</g>
					<g id="shape380-96" v:mID="380" v:groupContext="shape" transform="translate(24.2475,-16.5347)">
						<title>Sheet.380</title>
						<path d="M0 188.89 L9.55 188.89 L0 188.89 Z" class="st7"/>
					</g>
					<g id="shape381-98" v:mID="381" v:groupContext="shape" transform="translate(24.2475,-16.5347)">
						<title>Sheet.381</title>
						<path d="M0 188.89 L9.55 188.89 L0 188.89 Z" class="st8"/>
						<path d="M0 188.89 L9.55 188.89" class="st9"/>
					</g>
					<g id="shape382-101" v:mID="382" v:groupContext="shape" transform="translate(22.7781,-14.6975)">
						<title>Sheet.382</title>
						<path d="M0 188.89 L9.55 188.89 L0 188.89 Z" class="st7"/>
					</g>
					<g id="shape383-103" v:mID="383" v:groupContext="shape" transform="translate(22.7781,-14.6975)">
						<title>Sheet.383</title>
						<path d="M0 188.89 L9.55 188.89 L0 188.89 Z" class="st8"/>
						<path d="M0 188.89 L9.55 188.89" class="st9"/>
					</g>
					<g id="shape384-106" v:mID="384" v:groupContext="shape" transform="translate(20.9419,-12.4944)">
						<title>Sheet.384</title>
						<path d="M0 188.89 L9.92 188.89 L0 188.89 Z" class="st7"/>
					</g>
					<g id="shape385-108" v:mID="385" v:groupContext="shape" transform="translate(20.9419,-12.4944)">
						<title>Sheet.385</title>
						<path d="M0 188.89 L9.92 188.89 L0 188.89 Z" class="st8"/>
						<path d="M0 188.89 L9.92 188.89" class="st9"/>
					</g>
					<g id="shape386-111" v:mID="386" v:groupContext="shape">
						<title>F</title>
						<path d="M51.06 186.68 C34.89 187.78 30.85 188.89 13.96 186.68 L0 186.68 L0 179.34 L13.96 179.34 C30.86 181.91
									 34.9 180.44 51.06 179.34 L51.06 186.68 Z" class="st7"/>
					</g>
					<g id="group387-113" v:mID="387" v:groupContext="group">
						<title>Sheet.387</title>
						<g id="shape388-114" v:mID="388" v:groupContext="shape">
							<title>F</title>
							<path d="M51.06 186.68 C34.89 187.78 30.85 188.89 13.96 186.68 L0 186.68 L0 179.34 L13.96 179.34 C30.86
										 181.91 34.9 180.44 51.06 179.34 L51.06 186.68 Z" class="st7"/>
						</g>
						<g id="shape389-116" v:mID="389" v:groupContext="shape" transform="translate(26.8185,-28.2888)">
							<title>Sheet.389</title>
							<path d="M2.94 184.85 L2.94 188.89 L0 188.89 L2.94 184.85 Z" class="st7"/>
						</g>
						<g id="shape390-118" v:mID="390" v:groupContext="shape" transform="translate(58.4082,-28.2888)">
							<title>Sheet.390</title>
							<path d="M2.94 184.85 L2.94 188.89 L0 188.89 L2.94 184.85 Z" class="st7"/>
						</g>
					</g>
				</g>
			</g>
			<g id="group429-120" transform="translate(123.307,-3.02249)" v:mID="429" v:groupContext="group">
				<title>Sheet.429</title>
				<g id="group393-121" v:mID="393" v:groupContext="group">
					<title>Sheet.393</title>
					<g id="shape394-122" v:mID="394" v:groupContext="shape" transform="translate(34.6696,-5.68729)">
						<title>Sheet.394</title>
						<path d="M16.47 188.89 A11.3161 6.01845 -180 1 0 0 180.68" class="st10"/>
					</g>
					<g id="shape395-125" v:mID="395" v:groupContext="shape" transform="translate(34.8531,-5.97757)">
						<title>Sheet.395</title>
						<path d="M16.29 188.89 A11.0435 5.74488 -180 1 0 -0 181.16" class="st11"/>
					</g>
					<g id="shape396-128" v:mID="396" v:groupContext="shape" transform="translate(45.2645,-1.91496)">
						<title>Sheet.396</title>
						<path d="M0 188.89 L3.54 184.24 L9.82 184.24 L6.54 188.89 L0 188.89 L0 188.89 Z" class="st12"/>
					</g>
					<g id="shape397-130" v:mID="397" v:groupContext="shape" transform="translate(45.2645,-1.91496)">
						<title>Sheet.397</title>
						<path d="M0 188.89 L3.54 184.24 L9.82 184.24 L6.54 188.89 L0 188.89 L0 188.89 Z" class="st13"/>
					</g>
					<g id="shape398-132" v:mID="398" v:groupContext="shape" transform="translate(51.8088,-5.68434E-14)">
						<title>Sheet.398</title>
						<path d="M0 188.89 L3.27 185.33 L3.27 182.32 L0 186.97 L0 188.89 L0 188.89 Z" class="st14"/>
					</g>
					<g id="shape399-134" v:mID="399" v:groupContext="shape" transform="translate(51.8088,-5.68434E-14)">
						<title>Sheet.399</title>
						<path d="M0 188.89 L3.27 185.33 L3.27 182.32 L0 186.97 L0 188.89 L0 188.89 Z" class="st13"/>
					</g>
					<g id="shape400-136" v:mID="400" v:groupContext="shape" transform="translate(45.2645,-0.273566)">
						<title>Sheet.400</title>
						<path d="M0 187.24 L6.54 187.24 L6.54 188.89 L0 188.89 L0 187.24 L0 187.24 Z" class="st15"/>
					</g>
					<g id="shape401-138" v:mID="401" v:groupContext="shape" transform="translate(45.2645,-0.273566)">
						<title>Sheet.401</title>
						<path d="M0 187.24 L6.54 187.24 L6.54 188.89 L0 188.89 L0 187.24 L0 187.24 Z" class="st13"/>
					</g>
					<g id="shape402-140" v:mID="402" v:groupContext="shape" transform="translate(8.18034,-8.20698)">
						<title>Sheet.402</title>
						<path d="M0 182.32 L29.18 182.32 L29.18 188.89 L0 188.89 L0 182.32 L0 182.32 Z" class="st16"/>
					</g>
					<g id="shape403-142" v:mID="403" v:groupContext="shape" transform="translate(8.18034,-8.20698)">
						<title>Sheet.403</title>
						<path d="M0 182.32 L29.18 182.32 L29.18 188.89 L0 188.89 L0 182.32 L0 182.32 Z" class="st13"/>
					</g>
					<g id="shape404-144" v:mID="404" v:groupContext="shape" transform="translate(37.0842,-8.20698)">
						<title>Sheet.404</title>
						<path d="M0 188.89 L5.45 183.41 L5.73 179.04 L0 184.51 L0 188.89 L0 188.89 Z" class="st17"/>
					</g>
					<g id="shape405-146" v:mID="405" v:groupContext="shape" transform="translate(37.0842,-8.20698)">
						<title>Sheet.405</title>
						<path d="M0 188.89 L5.45 183.41 L5.73 179.04 L0 184.51 L0 188.89 L0 188.89 Z" class="st13"/>
					</g>
					<g id="shape406-148" v:mID="406" v:groupContext="shape" transform="translate(0,-1.91496)">
						<title>Sheet.406</title>
						<path d="M0 188.89 L5.45 182.05 L43.08 182.05 L37.63 188.89 L0 188.89 L0 188.89 Z" class="st12"/>
					</g>
					<g id="shape407-150" v:mID="407" v:groupContext="shape" transform="translate(0,-1.91496)">
						<title>Sheet.407</title>
						<path d="M0 188.89 L5.45 182.05 L43.08 182.05 L37.63 188.89 L0 188.89 L0 188.89 Z" class="st18"/>
					</g>
					<g id="shape408-152" v:mID="408" v:groupContext="shape" transform="translate(37.6295,-0.273566)">
						<title>Sheet.408</title>
						<path d="M0 188.89 L5.45 183.41 L5.45 180.41 L0 187.24 L0 188.89 L0 188.89 Z" class="st14"/>
					</g>
					<g id="shape409-154" v:mID="409" v:groupContext="shape" transform="translate(37.6295,-0.273566)">
						<title>Sheet.409</title>
						<path d="M0 188.89 L5.45 183.41 L5.45 180.41 L0 187.24 L0 188.89 L0 188.89 Z" class="st18"/>
					</g>
					<g id="shape410-156" v:mID="410" v:groupContext="shape" transform="translate(0,-0.273566)">
						<title>Sheet.410</title>
						<path d="M0 187.24 L37.63 187.24 L37.63 188.89 L0 188.89 L0 187.24 L0 187.24 Z" class="st15"/>
					</g>
					<g id="shape411-158" v:mID="411" v:groupContext="shape" transform="translate(0,-0.273566)">
						<title>Sheet.411</title>
						<path d="M0 187.24 L37.63 187.24 L37.63 188.89 L0 188.89 L0 187.24 L0 187.24 Z" class="st18"/>
					</g>
					<g id="shape412-160" v:mID="412" v:groupContext="shape" transform="translate(39.2656,-12.0369)">
						<title>Sheet.412</title>
						<path d="M0 188.89 L6 182.59 L6 180.95 L0 187.24 L0 188.89 L0 188.89 Z" class="st14"/>
					</g>
					<g id="shape413-162" v:mID="413" v:groupContext="shape" transform="translate(39.2656,-12.0369)">
						<title>Sheet.413</title>
						<path d="M0 188.89 L6 182.59 L6 180.95 L0 187.24 L0 188.89 L0 188.89 Z" class="st19"/>
					</g>
					<g id="shape414-164" v:mID="414" v:groupContext="shape" transform="translate(4.9082,-12.0369)">
						<title>Sheet.414</title>
						<path d="M34.36 188.89 L0 188.89 L0 187.24 L34.36 187.24 L34.36 188.89 L34.36 188.89 Z" class="st15"/>
					</g>
					<g id="shape415-166" v:mID="415" v:groupContext="shape" transform="translate(4.9082,-12.0369)">
						<title>Sheet.415</title>
						<path d="M34.36 188.89 L0 188.89 L0 187.24 L34.36 187.24 L34.36 188.89 L34.36 188.89 Z" class="st13"/>
					</g>
					<g id="shape416-168" v:mID="416" v:groupContext="shape" transform="translate(4.9082,-13.6783)">
						<title>Sheet.416</title>
						<path d="M40.36 182.59 L6 182.59 L0 188.89 L34.36 188.89 L40.36 182.59 L40.36 182.59 Z" class="st15"/>
					</g>
					<g id="shape417-170" v:mID="417" v:groupContext="shape" transform="translate(4.9082,-13.6783)">
						<title>Sheet.417</title>
						<path d="M40.36 182.59 L6 182.59 L0 188.89 L34.36 188.89 L40.36 182.59 L40.36 182.59 Z" class="st13"/>
					</g>
					<g id="shape418-172" v:mID="418" v:groupContext="shape" transform="translate(9.27105,-16.6875)">
						<title>Sheet.418</title>
						<path d="M0 187.52 L29.18 187.52 L30.27 188.89 L1.09 188.89 L0 187.52 L0 187.52 Z" class="st14"/>
					</g>
					<g id="shape419-174" v:mID="419" v:groupContext="shape" transform="translate(9.27105,-16.6875)">
						<title>Sheet.419</title>
						<path d="M0 187.52 L29.18 187.52 L30.27 188.89 L1.09 188.89 L0 187.52 L0 187.52 Z" class="st13"/>
					</g>
					<g id="shape420-176" v:mID="420" v:groupContext="shape" transform="translate(38.4476,-16.6875)">
						<title>Sheet.420</title>
						<path d="M3.27 183.96 L0 187.52 L1.09 188.89 L4.36 185.6 L3.27 183.96 L3.27 183.96 Z" class="st17"/>
					</g>
					<g id="shape421-178" v:mID="421" v:groupContext="shape" transform="translate(38.4476,-16.6875)">
						<title>Sheet.421</title>
						<path d="M3.27 183.96 L0 187.52 L1.09 188.89 L4.36 185.6 L3.27 183.96 L3.27 183.96 Z" class="st19"/>
					</g>
					<g id="shape422-180" v:mID="422" v:groupContext="shape" transform="translate(6.81695,-45.4119)">
						<title>Sheet.422</title>
						<path d="M0 188.89 L3.82 185.33 L38.45 185.33 L34.63 188.89 L0 188.89 L0 188.89 Z" class="st12"/>
					</g>
					<g id="shape423-182" v:mID="423" v:groupContext="shape" transform="translate(6.81695,-45.4119)">
						<title>Sheet.423</title>
						<path d="M0 188.89 L3.82 185.33 L38.45 185.33 L34.63 188.89 L0 188.89 L0 188.89 Z" class="st13"/>
					</g>
					<g id="shape424-184" v:mID="424" v:groupContext="shape" transform="translate(6.81695,-18.0553)">
						<title>Sheet.424</title>
						<path d="M34.9 161.53 L0 161.53 L0 188.89 L34.9 188.89 L34.9 161.53 Z" class="st13"/>
					</g>
					<g id="shape425-186" v:mID="425" v:groupContext="shape" transform="translate(9.8164,-20.791)">
						<title>Sheet.425</title>
						<path d="M26.07 166.3 L2.83 166.3 A2.83465 2.83465 -180 0 0 -0 169.14 L0 186.05 A2.83465 2.83465 -180 0 0
									 2.83 188.89 L26.07 188.89 A2.83465 2.83465 -180 0 0 28.9 186.05 L28.9 169.14 A2.83465 2.83465
									 -180 0 0 26.07 166.3 Z" class="st13"/>
					</g>
					<g id="shape426-188" v:mID="426" v:groupContext="shape" transform="translate(41.447,-18.0553)">
						<title>Sheet.426</title>
						<path d="M0 188.89 L3.82 185.06 L3.82 157.97 L0 161.53 L0 188.89 L0 188.89 Z" class="st14"/>
					</g>
					<g id="shape427-190" v:mID="427" v:groupContext="shape" transform="translate(41.447,-18.0553)">
						<title>Sheet.427</title>
						<path d="M0 188.89 L3.82 185.06 L3.82 157.97 L0 161.53 L0 188.89 L0 188.89 Z" class="st13"/>
					</g>
				</g>
				<g id="shape428-192" v:mID="428" v:groupContext="shape" transform="translate(8.31672,-21.0429)">
					<title>Sheet.428</title>
					<desc>PC</desc>
					<v:userDefs/>
					<v:textBlock v:margins="rect(0,0,0,0)" v:tabSpace="42.5197"/>
					<v:textRect cx="15.8677" cy="178.854" width="31.75" height="20.0635"/>
					<rect x="0" y="168.822" width="31.7357" height="20.0635" class="st20"/>
					<text x="7.11" y="181.55" class="st21" v:langID="1026"><v:paragraph v:horizAlign="1"/><v:tabList/>PC<tspan
								class="st22" v:langID="1033">3</tspan></text>				</g>
			</g>
			<g id="group430-196" transform="translate(123.307,-62.3835)" v:mID="430" v:groupContext="group">
				<title>Sheet.430</title>
				<g id="group310-197" v:mID="310" v:groupContext="group">
					<title>Sheet.310</title>
					<g id="shape311-198" v:mID="311" v:groupContext="shape" transform="translate(34.6696,-5.68729)">
						<title>Sheet.311</title>
						<path d="M16.47 188.89 A11.3161 6.01845 -180 1 0 0 180.68" class="st10"/>
					</g>
					<g id="shape312-201" v:mID="312" v:groupContext="shape" transform="translate(34.8531,-5.97757)">
						<title>Sheet.312</title>
						<path d="M16.29 188.89 A11.0435 5.74488 -180 1 0 -0 181.16" class="st11"/>
					</g>
					<g id="shape313-204" v:mID="313" v:groupContext="shape" transform="translate(45.2645,-1.91496)">
						<title>Sheet.313</title>
						<path d="M0 188.89 L3.54 184.24 L9.82 184.24 L6.54 188.89 L0 188.89 L0 188.89 Z" class="st12"/>
					</g>
					<g id="shape314-206" v:mID="314" v:groupContext="shape" transform="translate(45.2645,-1.91496)">
						<title>Sheet.314</title>
						<path d="M0 188.89 L3.54 184.24 L9.82 184.24 L6.54 188.89 L0 188.89 L0 188.89 Z" class="st13"/>
					</g>
					<g id="shape315-208" v:mID="315" v:groupContext="shape" transform="translate(51.8088,-5.68434E-14)">
						<title>Sheet.315</title>
						<path d="M0 188.89 L3.27 185.33 L3.27 182.32 L0 186.97 L0 188.89 L0 188.89 Z" class="st14"/>
					</g>
					<g id="shape316-210" v:mID="316" v:groupContext="shape" transform="translate(51.8088,-5.68434E-14)">
						<title>Sheet.316</title>
						<path d="M0 188.89 L3.27 185.33 L3.27 182.32 L0 186.97 L0 188.89 L0 188.89 Z" class="st13"/>
					</g>
					<g id="shape317-212" v:mID="317" v:groupContext="shape" transform="translate(45.2645,-0.273566)">
						<title>Sheet.317</title>
						<path d="M0 187.24 L6.54 187.24 L6.54 188.89 L0 188.89 L0 187.24 L0 187.24 Z" class="st15"/>
					</g>
					<g id="shape318-214" v:mID="318" v:groupContext="shape" transform="translate(45.2645,-0.273566)">
						<title>Sheet.318</title>
						<path d="M0 187.24 L6.54 187.24 L6.54 188.89 L0 188.89 L0 187.24 L0 187.24 Z" class="st13"/>
					</g>
					<g id="shape319-216" v:mID="319" v:groupContext="shape" transform="translate(8.18034,-8.20698)">
						<title>Sheet.319</title>
						<path d="M0 182.32 L29.18 182.32 L29.18 188.89 L0 188.89 L0 182.32 L0 182.32 Z" class="st16"/>
					</g>
					<g id="shape320-218" v:mID="320" v:groupContext="shape" transform="translate(8.18034,-8.20698)">
						<title>Sheet.320</title>
						<path d="M0 182.32 L29.18 182.32 L29.18 188.89 L0 188.89 L0 182.32 L0 182.32 Z" class="st13"/>
					</g>
					<g id="shape321-220" v:mID="321" v:groupContext="shape" transform="translate(37.0842,-8.20698)">
						<title>Sheet.321</title>
						<path d="M0 188.89 L5.45 183.41 L5.73 179.04 L0 184.51 L0 188.89 L0 188.89 Z" class="st17"/>
					</g>
					<g id="shape322-222" v:mID="322" v:groupContext="shape" transform="translate(37.0842,-8.20698)">
						<title>Sheet.322</title>
						<path d="M0 188.89 L5.45 183.41 L5.73 179.04 L0 184.51 L0 188.89 L0 188.89 Z" class="st13"/>
					</g>
					<g id="shape323-224" v:mID="323" v:groupContext="shape" transform="translate(0,-1.91496)">
						<title>Sheet.323</title>
						<path d="M0 188.89 L5.45 182.05 L43.08 182.05 L37.63 188.89 L0 188.89 L0 188.89 Z" class="st12"/>
					</g>
					<g id="shape324-226" v:mID="324" v:groupContext="shape" transform="translate(0,-1.91496)">
						<title>Sheet.324</title>
						<path d="M0 188.89 L5.45 182.05 L43.08 182.05 L37.63 188.89 L0 188.89 L0 188.89 Z" class="st18"/>
					</g>
					<g id="shape325-228" v:mID="325" v:groupContext="shape" transform="translate(37.6295,-0.273566)">
						<title>Sheet.325</title>
						<path d="M0 188.89 L5.45 183.41 L5.45 180.41 L0 187.24 L0 188.89 L0 188.89 Z" class="st14"/>
					</g>
					<g id="shape326-230" v:mID="326" v:groupContext="shape" transform="translate(37.6295,-0.273566)">
						<title>Sheet.326</title>
						<path d="M0 188.89 L5.45 183.41 L5.45 180.41 L0 187.24 L0 188.89 L0 188.89 Z" class="st18"/>
					</g>
					<g id="shape327-232" v:mID="327" v:groupContext="shape" transform="translate(0,-0.273566)">
						<title>Sheet.327</title>
						<path d="M0 187.24 L37.63 187.24 L37.63 188.89 L0 188.89 L0 187.24 L0 187.24 Z" class="st15"/>
					</g>
					<g id="shape328-234" v:mID="328" v:groupContext="shape" transform="translate(0,-0.273566)">
						<title>Sheet.328</title>
						<path d="M0 187.24 L37.63 187.24 L37.63 188.89 L0 188.89 L0 187.24 L0 187.24 Z" class="st18"/>
					</g>
					<g id="shape329-236" v:mID="329" v:groupContext="shape" transform="translate(39.2656,-12.0369)">
						<title>Sheet.329</title>
						<path d="M0 188.89 L6 182.59 L6 180.95 L0 187.24 L0 188.89 L0 188.89 Z" class="st14"/>
					</g>
					<g id="shape330-238" v:mID="330" v:groupContext="shape" transform="translate(39.2656,-12.0369)">
						<title>Sheet.330</title>
						<path d="M0 188.89 L6 182.59 L6 180.95 L0 187.24 L0 188.89 L0 188.89 Z" class="st19"/>
					</g>
					<g id="shape331-240" v:mID="331" v:groupContext="shape" transform="translate(4.9082,-12.0369)">
						<title>Sheet.331</title>
						<path d="M34.36 188.89 L0 188.89 L0 187.24 L34.36 187.24 L34.36 188.89 L34.36 188.89 Z" class="st15"/>
					</g>
					<g id="shape332-242" v:mID="332" v:groupContext="shape" transform="translate(4.9082,-12.0369)">
						<title>Sheet.332</title>
						<path d="M34.36 188.89 L0 188.89 L0 187.24 L34.36 187.24 L34.36 188.89 L34.36 188.89 Z" class="st13"/>
					</g>
					<g id="shape333-244" v:mID="333" v:groupContext="shape" transform="translate(4.9082,-13.6783)">
						<title>Sheet.333</title>
						<path d="M40.36 182.59 L6 182.59 L0 188.89 L34.36 188.89 L40.36 182.59 L40.36 182.59 Z" class="st15"/>
					</g>
					<g id="shape334-246" v:mID="334" v:groupContext="shape" transform="translate(4.9082,-13.6783)">
						<title>Sheet.334</title>
						<path d="M40.36 182.59 L6 182.59 L0 188.89 L34.36 188.89 L40.36 182.59 L40.36 182.59 Z" class="st13"/>
					</g>
					<g id="shape335-248" v:mID="335" v:groupContext="shape" transform="translate(9.27105,-16.6875)">
						<title>Sheet.335</title>
						<path d="M0 187.52 L29.18 187.52 L30.27 188.89 L1.09 188.89 L0 187.52 L0 187.52 Z" class="st14"/>
					</g>
					<g id="shape336-250" v:mID="336" v:groupContext="shape" transform="translate(9.27105,-16.6875)">
						<title>Sheet.336</title>
						<path d="M0 187.52 L29.18 187.52 L30.27 188.89 L1.09 188.89 L0 187.52 L0 187.52 Z" class="st13"/>
					</g>
					<g id="shape337-252" v:mID="337" v:groupContext="shape" transform="translate(38.4476,-16.6875)">
						<title>Sheet.337</title>
						<path d="M3.27 183.96 L0 187.52 L1.09 188.89 L4.36 185.6 L3.27 183.96 L3.27 183.96 Z" class="st17"/>
					</g>
					<g id="shape338-254" v:mID="338" v:groupContext="shape" transform="translate(38.4476,-16.6875)">
						<title>Sheet.338</title>
						<path d="M3.27 183.96 L0 187.52 L1.09 188.89 L4.36 185.6 L3.27 183.96 L3.27 183.96 Z" class="st19"/>
					</g>
					<g id="shape339-256" v:mID="339" v:groupContext="shape" transform="translate(6.81695,-45.4119)">
						<title>Sheet.339</title>
						<path d="M0 188.89 L3.82 185.33 L38.45 185.33 L34.63 188.89 L0 188.89 L0 188.89 Z" class="st12"/>
					</g>
					<g id="shape340-258" v:mID="340" v:groupContext="shape" transform="translate(6.81695,-45.4119)">
						<title>Sheet.340</title>
						<path d="M0 188.89 L3.82 185.33 L38.45 185.33 L34.63 188.89 L0 188.89 L0 188.89 Z" class="st13"/>
					</g>
					<g id="shape341-260" v:mID="341" v:groupContext="shape" transform="translate(6.81695,-18.0553)">
						<title>Sheet.341</title>
						<path d="M34.9 161.53 L0 161.53 L0 188.89 L34.9 188.89 L34.9 161.53 Z" class="st13"/>
					</g>
					<g id="shape342-262" v:mID="342" v:groupContext="shape" transform="translate(9.8164,-20.791)">
						<title>Sheet.342</title>
						<path d="M26.07 166.3 L2.83 166.3 A2.83465 2.83465 -180 0 0 -0 169.14 L0 186.05 A2.83465 2.83465 -180 0 0
									 2.83 188.89 L26.07 188.89 A2.83465 2.83465 -180 0 0 28.9 186.05 L28.9 169.14 A2.83465 2.83465
									 -180 0 0 26.07 166.3 Z" class="st13"/>
					</g>
					<g id="shape343-264" v:mID="343" v:groupContext="shape" transform="translate(41.447,-18.0553)">
						<title>Sheet.343</title>
						<path d="M0 188.89 L3.82 185.06 L3.82 157.97 L0 161.53 L0 188.89 L0 188.89 Z" class="st14"/>
					</g>
					<g id="shape344-266" v:mID="344" v:groupContext="shape" transform="translate(41.447,-18.0553)">
						<title>Sheet.344</title>
						<path d="M0 188.89 L3.82 185.06 L3.82 157.97 L0 161.53 L0 188.89 L0 188.89 Z" class="st13"/>
					</g>
				</g>
				<g id="shape345-268" v:mID="345" v:groupContext="shape" transform="translate(8.31672,-21.0429)">
					<title>Sheet.345</title>
					<desc>PC</desc>
					<v:userDefs/>
					<v:textBlock v:margins="rect(0,0,0,0)" v:tabSpace="42.5197"/>
					<v:textRect cx="15.8677" cy="178.854" width="31.75" height="20.0635"/>
					<rect x="0" y="168.822" width="31.7357" height="20.0635" class="st20"/>
					<text x="7.11" y="181.55" class="st21" v:langID="1026"><v:paragraph v:horizAlign="1"/><v:tabList/>PC<tspan
								class="st22" v:langID="1033">2</tspan></text>				</g>
			</g>
			<g id="group431-272" transform="translate(123.307,-121.745)" v:mID="431" v:groupContext="group">
				<title>Sheet.431</title>
				<g id="group273-273" v:mID="273" v:groupContext="group">
					<title>Sheet.273</title>
					<g id="shape274-274" v:mID="274" v:groupContext="shape" transform="translate(34.6696,-5.68729)">
						<title>Sheet.274</title>
						<path d="M16.47 188.89 A11.3161 6.01845 -180 1 0 0 180.68" class="st10"/>
					</g>
					<g id="shape275-277" v:mID="275" v:groupContext="shape" transform="translate(34.8531,-5.97757)">
						<title>Sheet.275</title>
						<path d="M16.29 188.89 A11.0435 5.74488 -180 1 0 -0 181.16" class="st11"/>
					</g>
					<g id="shape276-280" v:mID="276" v:groupContext="shape" transform="translate(45.2645,-1.91496)">
						<title>Sheet.276</title>
						<path d="M0 188.89 L3.54 184.24 L9.82 184.24 L6.54 188.89 L0 188.89 L0 188.89 Z" class="st12"/>
					</g>
					<g id="shape277-282" v:mID="277" v:groupContext="shape" transform="translate(45.2645,-1.91496)">
						<title>Sheet.277</title>
						<path d="M0 188.89 L3.54 184.24 L9.82 184.24 L6.54 188.89 L0 188.89 L0 188.89 Z" class="st13"/>
					</g>
					<g id="shape278-284" v:mID="278" v:groupContext="shape" transform="translate(51.8088,-5.68434E-14)">
						<title>Sheet.278</title>
						<path d="M0 188.89 L3.27 185.33 L3.27 182.32 L0 186.97 L0 188.89 L0 188.89 Z" class="st14"/>
					</g>
					<g id="shape279-286" v:mID="279" v:groupContext="shape" transform="translate(51.8088,-5.68434E-14)">
						<title>Sheet.279</title>
						<path d="M0 188.89 L3.27 185.33 L3.27 182.32 L0 186.97 L0 188.89 L0 188.89 Z" class="st13"/>
					</g>
					<g id="shape280-288" v:mID="280" v:groupContext="shape" transform="translate(45.2645,-0.273566)">
						<title>Sheet.280</title>
						<path d="M0 187.24 L6.54 187.24 L6.54 188.89 L0 188.89 L0 187.24 L0 187.24 Z" class="st15"/>
					</g>
					<g id="shape281-290" v:mID="281" v:groupContext="shape" transform="translate(45.2645,-0.273566)">
						<title>Sheet.281</title>
						<path d="M0 187.24 L6.54 187.24 L6.54 188.89 L0 188.89 L0 187.24 L0 187.24 Z" class="st13"/>
					</g>
					<g id="shape282-292" v:mID="282" v:groupContext="shape" transform="translate(8.18034,-8.20698)">
						<title>Sheet.282</title>
						<path d="M0 182.32 L29.18 182.32 L29.18 188.89 L0 188.89 L0 182.32 L0 182.32 Z" class="st16"/>
					</g>
					<g id="shape283-294" v:mID="283" v:groupContext="shape" transform="translate(8.18034,-8.20698)">
						<title>Sheet.283</title>
						<path d="M0 182.32 L29.18 182.32 L29.18 188.89 L0 188.89 L0 182.32 L0 182.32 Z" class="st13"/>
					</g>
					<g id="shape284-296" v:mID="284" v:groupContext="shape" transform="translate(37.0842,-8.20698)">
						<title>Sheet.284</title>
						<path d="M0 188.89 L5.45 183.41 L5.73 179.04 L0 184.51 L0 188.89 L0 188.89 Z" class="st17"/>
					</g>
					<g id="shape285-298" v:mID="285" v:groupContext="shape" transform="translate(37.0842,-8.20698)">
						<title>Sheet.285</title>
						<path d="M0 188.89 L5.45 183.41 L5.73 179.04 L0 184.51 L0 188.89 L0 188.89 Z" class="st13"/>
					</g>
					<g id="shape286-300" v:mID="286" v:groupContext="shape" transform="translate(0,-1.91496)">
						<title>Sheet.286</title>
						<path d="M0 188.89 L5.45 182.05 L43.08 182.05 L37.63 188.89 L0 188.89 L0 188.89 Z" class="st12"/>
					</g>
					<g id="shape287-302" v:mID="287" v:groupContext="shape" transform="translate(0,-1.91496)">
						<title>Sheet.287</title>
						<path d="M0 188.89 L5.45 182.05 L43.08 182.05 L37.63 188.89 L0 188.89 L0 188.89 Z" class="st18"/>
					</g>
					<g id="shape288-304" v:mID="288" v:groupContext="shape" transform="translate(37.6295,-0.273566)">
						<title>Sheet.288</title>
						<path d="M0 188.89 L5.45 183.41 L5.45 180.41 L0 187.24 L0 188.89 L0 188.89 Z" class="st14"/>
					</g>
					<g id="shape289-306" v:mID="289" v:groupContext="shape" transform="translate(37.6295,-0.273566)">
						<title>Sheet.289</title>
						<path d="M0 188.89 L5.45 183.41 L5.45 180.41 L0 187.24 L0 188.89 L0 188.89 Z" class="st18"/>
					</g>
					<g id="shape290-308" v:mID="290" v:groupContext="shape" transform="translate(0,-0.273566)">
						<title>Sheet.290</title>
						<path d="M0 187.24 L37.63 187.24 L37.63 188.89 L0 188.89 L0 187.24 L0 187.24 Z" class="st15"/>
					</g>
					<g id="shape291-310" v:mID="291" v:groupContext="shape" transform="translate(0,-0.273566)">
						<title>Sheet.291</title>
						<path d="M0 187.24 L37.63 187.24 L37.63 188.89 L0 188.89 L0 187.24 L0 187.24 Z" class="st18"/>
					</g>
					<g id="shape292-312" v:mID="292" v:groupContext="shape" transform="translate(39.2656,-12.0369)">
						<title>Sheet.292</title>
						<path d="M0 188.89 L6 182.59 L6 180.95 L0 187.24 L0 188.89 L0 188.89 Z" class="st14"/>
					</g>
					<g id="shape293-314" v:mID="293" v:groupContext="shape" transform="translate(39.2656,-12.0369)">
						<title>Sheet.293</title>
						<path d="M0 188.89 L6 182.59 L6 180.95 L0 187.24 L0 188.89 L0 188.89 Z" class="st19"/>
					</g>
					<g id="shape294-316" v:mID="294" v:groupContext="shape" transform="translate(4.9082,-12.0369)">
						<title>Sheet.294</title>
						<path d="M34.36 188.89 L0 188.89 L0 187.24 L34.36 187.24 L34.36 188.89 L34.36 188.89 Z" class="st15"/>
					</g>
					<g id="shape295-318" v:mID="295" v:groupContext="shape" transform="translate(4.9082,-12.0369)">
						<title>Sheet.295</title>
						<path d="M34.36 188.89 L0 188.89 L0 187.24 L34.36 187.24 L34.36 188.89 L34.36 188.89 Z" class="st13"/>
					</g>
					<g id="shape296-320" v:mID="296" v:groupContext="shape" transform="translate(4.9082,-13.6783)">
						<title>Sheet.296</title>
						<path d="M40.36 182.59 L6 182.59 L0 188.89 L34.36 188.89 L40.36 182.59 L40.36 182.59 Z" class="st15"/>
					</g>
					<g id="shape297-322" v:mID="297" v:groupContext="shape" transform="translate(4.9082,-13.6783)">
						<title>Sheet.297</title>
						<path d="M40.36 182.59 L6 182.59 L0 188.89 L34.36 188.89 L40.36 182.59 L40.36 182.59 Z" class="st13"/>
					</g>
					<g id="shape298-324" v:mID="298" v:groupContext="shape" transform="translate(9.27105,-16.6875)">
						<title>Sheet.298</title>
						<path d="M0 187.52 L29.18 187.52 L30.27 188.89 L1.09 188.89 L0 187.52 L0 187.52 Z" class="st14"/>
					</g>
					<g id="shape299-326" v:mID="299" v:groupContext="shape" transform="translate(9.27105,-16.6875)">
						<title>Sheet.299</title>
						<path d="M0 187.52 L29.18 187.52 L30.27 188.89 L1.09 188.89 L0 187.52 L0 187.52 Z" class="st13"/>
					</g>
					<g id="shape300-328" v:mID="300" v:groupContext="shape" transform="translate(38.4476,-16.6875)">
						<title>Sheet.300</title>
						<path d="M3.27 183.96 L0 187.52 L1.09 188.89 L4.36 185.6 L3.27 183.96 L3.27 183.96 Z" class="st17"/>
					</g>
					<g id="shape301-330" v:mID="301" v:groupContext="shape" transform="translate(38.4476,-16.6875)">
						<title>Sheet.301</title>
						<path d="M3.27 183.96 L0 187.52 L1.09 188.89 L4.36 185.6 L3.27 183.96 L3.27 183.96 Z" class="st19"/>
					</g>
					<g id="shape302-332" v:mID="302" v:groupContext="shape" transform="translate(6.81695,-45.4119)">
						<title>Sheet.302</title>
						<path d="M0 188.89 L3.82 185.33 L38.45 185.33 L34.63 188.89 L0 188.89 L0 188.89 Z" class="st12"/>
					</g>
					<g id="shape303-334" v:mID="303" v:groupContext="shape" transform="translate(6.81695,-45.4119)">
						<title>Sheet.303</title>
						<path d="M0 188.89 L3.82 185.33 L38.45 185.33 L34.63 188.89 L0 188.89 L0 188.89 Z" class="st13"/>
					</g>
					<g id="shape304-336" v:mID="304" v:groupContext="shape" transform="translate(6.81695,-18.0553)">
						<title>Sheet.304</title>
						<path d="M34.9 161.53 L0 161.53 L0 188.89 L34.9 188.89 L34.9 161.53 Z" class="st13"/>
					</g>
					<g id="shape305-338" v:mID="305" v:groupContext="shape" transform="translate(9.8164,-20.791)">
						<title>Sheet.305</title>
						<path d="M26.07 166.3 L2.83 166.3 A2.83465 2.83465 -180 0 0 -0 169.14 L0 186.05 A2.83465 2.83465 -180 0 0
									 2.83 188.89 L26.07 188.89 A2.83465 2.83465 -180 0 0 28.9 186.05 L28.9 169.14 A2.83465 2.83465
									 -180 0 0 26.07 166.3 Z" class="st13"/>
					</g>
					<g id="shape306-340" v:mID="306" v:groupContext="shape" transform="translate(41.447,-18.0553)">
						<title>Sheet.306</title>
						<path d="M0 188.89 L3.82 185.06 L3.82 157.97 L0 161.53 L0 188.89 L0 188.89 Z" class="st14"/>
					</g>
					<g id="shape307-342" v:mID="307" v:groupContext="shape" transform="translate(41.447,-18.0553)">
						<title>Sheet.307</title>
						<path d="M0 188.89 L3.82 185.06 L3.82 157.97 L0 161.53 L0 188.89 L0 188.89 Z" class="st13"/>
					</g>
				</g>
				<g id="shape308-344" v:mID="308" v:groupContext="shape" transform="translate(8.31672,-21.0429)">
					<title>Sheet.308</title>
					<desc>PC</desc>
					<v:userDefs/>
					<v:textBlock v:margins="rect(0,0,0,0)" v:tabSpace="42.5197"/>
					<v:textRect cx="15.8677" cy="178.854" width="31.75" height="20.0635"/>
					<rect x="0" y="168.822" width="31.7357" height="20.0635" class="st20"/>
					<text x="7.11" y="181.55" class="st21" v:langID="1026"><v:paragraph v:horizAlign="1"/><v:tabList/>PC1</text>				</g>
			</g>
			<g id="shape432-347" v:mID="432" v:groupContext="shape" transform="translate(193.774,-120.678) rotate(4.18193)">
				<title>Sheet.432</title>
				<path d="M0 188.89 L132.16 188.89" class="st23"/>
			</g>
			<g id="shape433-350" v:mID="433" v:groupContext="shape" transform="translate(129.107,-59.5203) rotate(-16.5258)">
				<title>Sheet.433</title>
				<path d="M0 188.89 L134.53 188.89" class="st23"/>
			</g>
			<g id="shape434-353" v:mID="434" v:groupContext="shape" transform="translate(72.7317,27.6136) rotate(-35.6553)">
				<title>Sheet.434</title>
				<path d="M0 188.89 L160.48 188.89" class="st23"/>
			</g>
			<g id="shape435-356" v:mID="435" v:groupContext="shape" transform="translate(248.074,-102.818) rotate(21.1247)">
				<title>Sheet.435</title>
				<path d="M0 188.89 L133.71 188.89" class="st23"/>
			</g>
			<g id="shape436-359" v:mID="436" v:groupContext="shape" transform="translate(179.246,-63.0584) rotate(-0.658544)">
				<title>Sheet.436</title>
				<path d="M0 188.89 L123.32 188.89" class="st23"/>
			</g>
			<g id="shape437-362" v:mID="437" v:groupContext="shape" transform="translate(103.176,12.6584) rotate(-24.9439)">
				<title>Sheet.437</title>
				<path d="M0 188.89 L134.43 188.89" class="st23"/>
			</g>
			<g id="shape438-365" v:mID="438" v:groupContext="shape" transform="translate(288.705,-76.9468) rotate(37.2664)">
				<title>Sheet.438</title>
				<path d="M0 188.89 L163.85 188.89" class="st23"/>
			</g>
			<g id="shape439-368" v:mID="439" v:groupContext="shape" transform="translate(244.25,-48.4538) rotate(20.3441)">
				<title>Sheet.439</title>
				<path d="M0 188.89 L134.53 188.89" class="st23"/>
			</g>
			<g id="shape440-371" v:mID="440" v:groupContext="shape" transform="translate(169.689,-1.66796) rotate(-3.99091)">
				<title>Sheet.440</title>
				<path d="M0 188.89 L122.19 188.89" class="st23"/>
			</g>
			<g id="shape442-374" v:mID="442" v:groupContext="shape" transform="translate(307.018,-156.54)">
				<title>Sheet.442</title>
				<desc>Server</desc>
				<v:textBlock v:margins="rect(4,4,4,4)" v:tabSpace="42.5197"/>
				<v:textRect cx="30.1825" cy="181.799" width="60.37" height="14.1732"/>
				<rect x="0" y="174.712" width="60.3649" height="14.1732" class="st24"/>
				<text x="12.51" y="185.4" class="st25" v:langID="1033"><v:paragraph v:horizAlign="1"/><v:tabList/>Server</text>			</g>
			<g id="shape443-377" v:mID="443" v:groupContext="shape" transform="translate(310.394,-85.7938)">
				<title>Sheet.443</title>
				<desc>Printer</desc>
				<v:textBlock v:margins="rect(4,4,4,4)" v:tabSpace="42.5197"/>
				<v:textRect cx="30.1825" cy="181.799" width="60.37" height="14.1732"/>
				<rect x="0" y="174.712" width="60.3649" height="14.1732" class="st24"/>
				<text x="12.51" y="185.4" class="st25" v:langID="1033"><v:paragraph v:horizAlign="1"/><v:tabList/>Printer</text>			</g>
			<g id="shape444-380" v:mID="444" v:groupContext="shape" transform="translate(323.15,-34.7244)">
				<title>Sheet.444</title>
				<desc>Phone</desc>
				<v:textBlock v:margins="rect(4,4,4,4)" v:tabSpace="42.5197"/>
				<v:textRect cx="30.1825" cy="181.799" width="60.37" height="14.1732"/>
				<rect x="0" y="174.712" width="60.3649" height="14.1732" class="st24"/>
				<text x="12.83" y="185.4" class="st25" v:langID="1033"><v:paragraph v:horizAlign="1"/><v:tabList/>Phone</text>			</g>
			<g id="shape487-383" v:mID="487" v:groupContext="shape" transform="translate(191.339,-122.484)">
				<title>Sheet.487</title>
				<desc>Each device needs to have 3 network ports.</desc>
				<v:textBlock v:margins="rect(4,4,4,4)" v:tabSpace="42.5197" v:verticalAlign="0"/>
				<v:textRect cx="56.6929" cy="168.277" width="113.39" height="41.2169"/>
				<path d="M59.62 177.92 L112.32 177.92 a1.06667 0.784255 -180 0 0 1.06667 -0.784255 L113.39 148.45 a1.06666 0.78425
							 -180 0 0 -1.06666 -0.784255 L1.07 147.67 a1.06667 0.784256 -180 0 0 -1.06667 0.784255 L0 177.14 a1.06667
							 0.784255 -180 0 0 1.06667 0.784255 L49.26 177.92 L53.42 188.32 a1.06667 0.784255 -180 0 0 2.04686 2.84217E-14
							 L59.62 177.92 Z" class="st26"/>
				<text x="8.88" y="159.17" class="st27" v:langID="1033"><v:paragraph v:spLine="-1" v:horizAlign="1"/><v:tabList/>Each device needs to <tspan
							x="5.84" dy="1em" class="st22">have </tspan><tspan class="st28">3 network ports</tspan>.</text>			</g>
		</g>
	</g>
</svg>
